<svg xmlns="http://www.w3.org/2000/svg" xmlns:xlink="http://www.w3.org/1999/xlink" width="146.573" height="200" viewBox="0 0 146.573 200">
  <defs>
    <clipPath id="clip-path">
      <path id="Pfad_3" data-name="Pfad 3" d="M145.539-72.851a28.064,28.064,0,0,1-.729,6.3q-3.931-.214-7.575-.1v-60.018a64.031,64.031,0,0,0-63.959-63.958A64.031,64.031,0,0,0,9.318-126.666v25.349a21.55,21.55,0,0,0-2.83,10.693,21.55,21.55,0,0,0,2.83,10.693v35.178a76.579,76.579,0,0,0-8.284-1.77v-80.189a72.335,72.335,0,0,1,72.253-72.253,72.335,72.335,0,0,1,72.253,72.253v53.862ZM10.352-78.289a21.834,21.834,0,0,0,8.284,7.138v29.426c-2.975-1.154-5.8-2.055-8.284-2.749ZM136.2-66.618a80.477,80.477,0,0,0-8.3.766v-60.768a54.691,54.691,0,0,0-54.63-54.63,54.692,54.692,0,0,0-54.63,54.63V-110.1a21.83,21.83,0,0,0-8.284,7.137v-23.706a63,63,0,0,1,62.924-62.924A63,63,0,0,1,136.2-126.666ZM19.67-70.674a21.545,21.545,0,0,0,8.284,1.735v31.552a74.62,74.62,0,0,0-8.284-3.929Zm-1.034-38.262q.509-.267,1.034-.5a20.523,20.523,0,0,1,8.284-1.835c.075,0,.15-.006.225-.006.271,0,.54.01.808.021a20.524,20.524,0,0,1,8.284,2.094c.35.173.694.357,1.034.549a20.8,20.8,0,0,1,8.284,8.644,20.613,20.613,0,0,1,1.034,2.381,20.565,20.565,0,0,1,1.212,6.969,20.565,20.565,0,0,1-1.212,6.969,20.562,20.562,0,0,1-1.034,2.381,20.8,20.8,0,0,1-8.284,8.644q-.51.288-1.034.549a20.524,20.524,0,0,1-8.284,2.094c-.269.01-.538.021-.808.021-.076,0-.15,0-.225-.006a20.523,20.523,0,0,1-8.284-1.835q-.525-.239-1.034-.5a20.8,20.8,0,0,1-8.284-7.895,20.576,20.576,0,0,1-1.034-2.008,20.536,20.536,0,0,1-1.8-8.409,20.531,20.531,0,0,1,1.8-8.408,20.592,20.592,0,0,1,1.034-2.008,20.8,20.8,0,0,1,8.284-7.9ZM126.863-65.694a72.091,72.091,0,0,0-8.3,1.826v-62.7a45.354,45.354,0,0,0-45.3-45.3,45.353,45.353,0,0,0-45.3,45.3v14.261a21.57,21.57,0,0,0-8.284,1.735v-16.044a53.657,53.657,0,0,1,53.6-53.6,53.656,53.656,0,0,1,53.6,53.6Zm10.372,13.409c-.337.383-.678.762-1.034,1.134a46.114,46.114,0,0,1-8.3,6.833c-.339.221-.687.434-1.034.648a56.909,56.909,0,0,1-8.3,4.2c-.345.141-.686.285-1.034.42a64.955,64.955,0,0,1-8.305,2.585c-.345.083-.686.173-1.034.251a70.381,70.381,0,0,1-8.3,1.334c-.343.034-.689.065-1.034.1-2.086.181-4.2.285-6.353.285a54.717,54.717,0,0,1-10.2-.868A62.522,62.522,0,0,1,90.088-45.57q.371-.4.757-.792Q92-47.551,93.287-48.739a60.681,60.681,0,0,1,5.561-4.534q.508-.367,1.034-.73a62.088,62.088,0,0,1,8.3-4.837c.34-.164.687-.325,1.034-.485a65.2,65.2,0,0,1,8.305-3.161q.513-.157,1.034-.307a71.1,71.1,0,0,1,8.3-1.853c.343-.055.686-.111,1.034-.162a79.144,79.144,0,0,1,8.3-.777c.34-.014.689-.019,1.034-.03q3.526-.1,7.322.091a33.06,33.06,0,0,1-7.322,13.239ZM28.989-68.953a21.539,21.539,0,0,0,8.284-1.985v33.2a62.933,62.933,0,0,0-6.4,2.079q-.938-.587-1.885-1.137Zm88.537,5.383a66.5,66.5,0,0,0-8.305,3.1v-66.058A36.014,36.014,0,0,0,73.247-162.5a36.014,36.014,0,0,0-35.974,35.974v16.213a21.55,21.55,0,0,0-8.284-1.984v-14.276A44.318,44.318,0,0,1,73.257-170.84a44.319,44.319,0,0,1,44.268,44.269Zm-9.339,3.584a63.4,63.4,0,0,0-8.3,4.727v-71.218a26.676,26.676,0,0,0-26.646-26.645,26.676,26.676,0,0,0-26.645,26.645v24.4a21.843,21.843,0,0,0-8.284-7.723v-16.726a34.979,34.979,0,0,1,34.94-34.94,34.979,34.979,0,0,1,34.94,34.94ZM47.625-81.025a21.553,21.553,0,0,0,2.246-9.6,21.553,21.553,0,0,0-2.246-9.6v-26.254a25.64,25.64,0,0,1,25.611-25.611,25.641,25.641,0,0,1,25.612,25.611v71.932a61.762,61.762,0,0,0-6.3,5.08q-.884.816-1.7,1.635v-80.132a17.628,17.628,0,0,0-17.609-17.608,17.628,17.628,0,0,0-17.607,17.608v88.016c-.443-.006-.884-.012-1.347-.012-2.237,0-4.459.123-6.657.343Zm-9.318,9.575a21.844,21.844,0,0,0,8.284-7.723v39.657a65.5,65.5,0,0,0-8.284,1.511Zm42.9,35.872v-90.8a8,8,0,0,0-7.989-7.989,8,8,0,0,0-7.989,7.989V-39.27a74,74,0,0,0-8.565-.659v-88.034a16.593,16.593,0,0,1,16.574-16.574,16.594,16.594,0,0,1,16.575,16.574v81.181a63.446,63.446,0,0,0-8.59,11.207.073.073,0,0,1-.016,0ZM80.172-35.8c-1.642-.373-3.184-.794-4.751-1.224a79.51,79.51,0,0,0-9.159-2.09v-87.267a6.963,6.963,0,0,1,6.955-6.956,6.963,6.963,0,0,1,6.956,6.956ZM1.312-45.437a79.829,79.829,0,0,1,8.007,1.75c.339.092.681.185,1.034.285,2.492.7,5.317,1.616,8.284,2.782.343.134.688.274,1.034.416a72.542,72.542,0,0,1,8.284,4q.518.294,1.034.6c.226.134.451.27.677.407-.228.094-.45.2-.677.293-.346.147-.691.294-1.034.447a58.066,58.066,0,0,0-8.284,4.525c-.347.229-.693.458-1.034.693-.543.375-1.083.753-1.611,1.146a49.235,49.235,0,0,0-6.674,5.972c-.356.385-.695.777-1.034,1.17A38.049,38.049,0,0,0,1.511-7.131ZM145.539-9.717v8.683H1.352a28.811,28.811,0,0,1,.6-3.738c.048-.21.108-.42.16-.631s.1-.42.159-.63A36.2,36.2,0,0,1,9.318-19.347q.5-.615,1.034-1.219a47.67,47.67,0,0,1,7.292-6.7c.325-.243.662-.471.992-.707s.684-.493,1.034-.729a56.736,56.736,0,0,1,8.284-4.631c.34-.156.689-.3,1.034-.447q.878-.379,1.77-.734c.209-.082.418-.162.628-.242.188-.072.375-.147.564-.217q2.607-.967,5.323-1.705c.343-.092.689-.176,1.034-.263a64.228,64.228,0,0,1,8.284-1.534c.343-.041.689-.07,1.034-.1a65.85,65.85,0,0,1,6.657-.347,68.33,68.33,0,0,1,20.865,2.9c1.812.5,3.586.983,5.52,1.4.172.037.349.072.523.108s.36.074.544.11a55.4,55.4,0,0,0,10.761.953c2.15,0,4.268-.1,6.353-.279.345-.03.691-.054,1.034-.089a71.264,71.264,0,0,0,8.3-1.331c.345-.076.691-.151,1.034-.232a66.267,66.267,0,0,0,8.305-2.549c.348-.133.689-.276,1.034-.414a58.62,58.62,0,0,0,8.3-4.108c.35-.211.691-.429,1.034-.646a48.189,48.189,0,0,0,8.3-6.574c.354-.353.7-.714,1.034-1.076a34.543,34.543,0,0,0,8.3-14.4V-9.717ZM73.287-200A73.37,73.37,0,0,0,0-126.713V0H146.573V-126.713A73.37,73.37,0,0,0,73.287-200Z" fill="none" clip-rule="evenodd"/>
    </clipPath>
    <clipPath id="clip-path-2">
      <path id="Pfad_2" data-name="Pfad 2" d="M-439,505H585V-5736H-439Z" fill="none"/>
    </clipPath>
  </defs>
  <g id="Gruppe_3" data-name="Gruppe 3" transform="translate(0 200)">
    <g id="Gruppe_2" data-name="Gruppe 2" clip-path="url(#clip-path)">
      <g id="Gruppe_1" data-name="Gruppe 1" clip-path="url(#clip-path-2)">
        <path id="Pfad_1" data-name="Pfad 1" d="M-5-205H151.573V5H-5Z" fill="#ffffff"/>
      </g>
    </g>
  </g>
</svg>
