<?xml version="1.0" encoding="UTF-8"?>
<svg width="280px" height="266px" viewBox="0 0 280 266" version="1.1" xmlns="http://www.w3.org/2000/svg" xmlns:xlink="http://www.w3.org/1999/xlink">
    <title>Group 2</title>
    <g id="Page-1" stroke="none" stroke-width="1" fill="none" fill-rule="evenodd">
        <g id="Boll_Startseite" transform="translate(-372.000000, -5470.000000)" fill="#FF1A0A">
            <g id="Reservation" transform="translate(0.000000, 5348.000000)">
                <g id="Group-2" transform="translate(372.000000, 122.000000)">
                    <path d="M212.539382,193.148981 C212.539382,195.296584 212.282304,197.400766 211.810189,199.453257 C209.189783,199.310589 206.666556,199.280953 204.234996,199.351253 L204.234996,139.333471 C204.234996,104.066882 175.543545,75.3754308 140.276266,75.3754308 C105.009677,75.3754308 76.3182257,104.066882 76.3182257,139.333471 L76.3182257,164.682905 C74.5207455,167.840901 73.4882971,171.488931 73.4882971,175.375431 C73.4882971,179.26193 74.5207455,182.909961 76.3182257,186.067957 L76.3182257,221.245637 C71.9348,220.077413 68.7885204,219.584622 68.0338268,219.475726 L68.0338268,139.286604 C68.0338268,99.4463651 100.446365,67.0338268 140.286604,67.0338268 C180.126844,67.0338268 212.539382,99.4463651 212.539382,139.286604 L212.539382,178.666446 L212.539382,193.148981 Z M77.3520525,187.711052 C79.454167,190.740165 82.3047721,193.209633 85.6364514,194.849282 L85.6364514,224.275439 C82.6610978,223.121688 79.8366829,222.220191 77.3520525,221.526838 L77.3520525,187.711052 Z M203.201169,199.382268 C200.297494,199.500813 197.533041,199.765473 194.896783,200.148678 L194.896783,139.381027 C194.896783,109.257382 170.390263,84.7508615 140.266617,84.7508615 C110.143661,84.7508615 85.6364514,109.257382 85.6364514,139.381027 L85.6364514,155.902269 C82.3047721,157.541229 79.454167,160.010697 77.3520525,163.03912 L77.3520525,139.333471 C77.3520525,104.636865 105.57966,76.4092576 140.276266,76.4092576 C174.973562,76.4092576 203.201169,104.636865 203.201169,139.333471 L203.201169,199.382268 Z M86.6702782,195.325531 C89.2190059,196.417253 92.0179197,197.031346 94.954677,197.060982 L94.954677,228.612687 C92.1778182,227.071596 89.3720122,225.773799 86.6702782,224.684145 L86.6702782,195.325531 Z M85.6364514,157.063601 C85.9755465,156.885783 86.3201555,156.718303 86.6702782,156.559094 C89.2024646,155.409478 92.0041353,154.75541 94.954677,154.723706 C95.0298018,154.723017 95.1042373,154.717503 95.1800513,154.717503 C95.4509139,154.717503 95.7197089,154.727842 95.9885038,154.73818 C98.9507623,154.853279 101.75519,155.59281 104.272903,156.832024 C104.623025,157.005018 104.966945,157.189039 105.30673,157.380641 C108.846553,159.380752 111.7392,162.393323 113.591128,166.024812 C113.982604,166.792601 114.32997,167.58658 114.624955,168.40606 C115.407907,170.584677 115.837289,172.930086 115.837289,175.375431 C115.837289,177.820776 115.407907,180.166184 114.624955,182.344802 C114.32997,183.164971 113.982604,183.958261 113.591128,184.72605 C111.7392,188.357539 108.846553,191.37011 105.30673,193.37022 C104.966945,193.562512 104.623025,193.745844 104.272903,193.918838 C101.75519,195.158051 98.9507623,195.897582 95.9885038,196.012682 C95.7197089,196.02302 95.4509139,196.033358 95.1800513,196.033358 C95.1042373,196.033358 95.0298018,196.028534 94.954677,196.027155 C92.0041353,195.995451 89.2024646,195.341383 86.6702782,194.191768 C86.3201555,194.032559 85.9755465,193.865079 85.6364514,193.68726 C82.190362,191.884267 79.314945,189.138423 77.3520525,185.79227 C76.9722934,185.145094 76.6269953,184.474485 76.3182257,183.784578 C75.167921,181.213795 74.5221239,178.369393 74.5221239,175.375431 C74.5221239,172.381468 75.167921,169.537066 76.3182257,166.966973 C76.6269953,166.276376 76.9722934,165.606457 77.3520525,164.958592 C79.314945,161.612439 82.190362,158.866595 85.6364514,157.063601 L85.6364514,157.063601 Z M193.862956,200.30582 C190.929645,200.773799 188.164503,201.393406 185.559259,202.131558 L185.559259,139.428583 C185.559259,114.448571 165.236291,94.1262923 140.256968,94.1262923 C115.276955,94.1262923 94.954677,114.448571 94.954677,139.428583 L94.954677,153.68988 C92.0179197,153.720205 89.2190059,154.333609 86.6702782,155.424641 L86.6702782,139.381027 C86.6702782,109.827365 110.713644,85.7846883 140.266617,85.7846883 C169.82028,85.7846883 193.862956,109.827365 193.862956,139.381027 L193.862956,200.30582 Z M204.234996,213.715243 C203.897968,214.097759 203.556805,214.476828 203.201169,214.849695 C200.811651,217.359138 198.023075,219.652855 194.896783,221.682601 C194.557688,221.903151 194.210322,222.116119 193.862956,222.330466 C191.294241,223.914978 188.515314,225.324429 185.559259,226.535384 C185.21465,226.676674 184.873487,226.820031 184.525432,226.955118 C181.88366,227.982053 179.104734,228.844954 176.220357,229.540374 C175.875059,229.623081 175.534585,229.713368 175.18653,229.79125 C172.503405,230.392937 169.727235,230.836793 166.882144,231.124886 C166.538913,231.159347 166.193615,231.189673 165.848317,231.219998 C163.762744,231.401263 161.646156,231.504645 159.495107,231.504645 C155.327406,231.504645 152.112894,231.15659 149.299507,230.636231 C151.049431,227.764949 153.595402,224.146555 157.087669,220.429603 C157.335098,220.165633 157.588041,219.901662 157.845119,219.637692 C158.615665,218.845091 159.427563,218.051112 160.287018,217.260579 C161.912194,215.764977 163.764811,214.231467 165.848317,212.726904 C166.186723,212.482232 166.531332,212.238938 166.882144,211.997023 C169.337138,210.29879 172.097455,208.653627 175.18653,207.160092 C175.526314,206.996058 175.872991,206.834781 176.220357,206.674882 C178.771152,205.497009 181.536294,204.426653 184.525432,203.514129 C184.867284,203.409368 185.211204,203.306674 185.559259,203.206738 C188.159678,202.457558 190.926888,201.83037 193.862956,201.35412 C194.206186,201.298983 194.548728,201.243156 194.896783,201.192154 C197.530284,200.802746 200.294737,200.535329 203.201169,200.414716 C203.541643,200.400243 203.890387,200.395418 204.234996,200.38508 C206.585918,200.316158 209.025749,200.343038 211.557246,200.476057 C210.270477,205.266121 207.744493,209.737077 204.234996,213.715243 L204.234996,213.715243 Z M95.9885038,197.046508 C98.9369779,196.937612 101.735892,196.238056 104.272903,195.061561 L104.272903,228.257051 C102.09015,228.838751 99.9542635,229.534861 97.8735147,230.335732 C97.2483941,229.944256 96.6198274,229.564497 95.9885038,229.198522 L95.9885038,197.046508 Z M184.525432,202.4293 C181.542497,203.325283 178.778044,204.375651 176.220357,205.533537 L176.220357,139.47545 C176.220357,119.63907 160.083009,103.501723 140.24663,103.501723 C120.41025,103.501723 104.272903,119.63907 104.272903,139.47545 L104.272903,155.688611 C101.735892,154.512806 98.9369779,153.81325 95.9885038,153.704353 L95.9885038,139.428583 C95.9885038,115.018554 115.846938,95.1601191 140.256968,95.1601191 C164.666308,95.1601191 184.525432,115.018554 184.525432,139.428583 L184.525432,202.4293 Z M175.18653,206.013233 C172.113997,207.47024 169.349544,209.074739 166.882144,210.739889 L166.882144,139.522317 C166.882144,124.830259 154.929038,112.877154 140.236291,112.877154 C125.544234,112.877154 113.591128,124.830259 113.591128,139.522317 L113.591128,163.924765 C111.563449,160.676481 108.701817,158.001627 105.30673,156.201389 L105.30673,139.47545 C105.30673,120.209054 120.980233,104.53555 140.24663,104.53555 C159.512337,104.53555 175.18653,120.209054 175.18653,139.47545 L175.18653,206.013233 Z M114.624955,184.974857 C116.060596,182.078764 116.871116,178.820831 116.871116,175.375431 C116.871116,171.930031 116.060596,168.672098 114.624955,165.776004 L114.624955,139.522317 C114.624955,125.400243 126.114217,113.910981 140.236291,113.910981 C154.359055,113.910981 165.848317,125.400243 165.848317,139.522317 L165.848317,211.454608 C163.464312,213.133543 161.368401,214.857277 159.549555,216.534144 C158.960273,217.077937 158.393047,217.623108 157.845119,218.168969 L157.845119,138.037052 C157.845119,128.32804 149.945993,120.428914 140.236291,120.428914 C130.527279,120.428914 122.628842,128.32804 122.628842,138.037052 L122.628842,226.052932 C122.185675,226.047418 121.744576,226.041215 121.282111,226.041215 C119.044909,226.041215 116.82356,226.163896 114.624955,226.383757 L114.624955,184.974857 Z M105.30673,194.549472 C108.701817,192.749235 111.563449,190.07438 113.591128,186.826097 L113.591128,226.483004 C110.777741,226.808315 108.01122,227.321093 105.30673,227.993769 L105.30673,194.549472 Z M148.205718,230.421884 L148.205718,139.617429 C148.205718,135.211948 144.621785,131.628015 140.216304,131.628015 C135.811513,131.628015 132.22758,135.211948 132.22758,139.617429 L132.22758,226.730433 C129.790505,226.38927 126.998484,226.150112 123.662669,226.071541 L123.662669,138.037052 C123.662669,128.898023 131.097262,121.462741 140.236291,121.462741 C149.37532,121.462741 156.811292,128.898023 156.811292,138.037052 L156.811292,219.217958 C152.88275,223.308466 150.085215,227.321782 148.22157,230.42533 C148.216745,230.42533 148.211231,230.423262 148.205718,230.421884 L148.205718,230.421884 Z M147.171891,230.198577 C145.530174,229.825711 143.988394,229.404598 142.420423,228.974527 C139.652524,228.216387 136.82742,227.44653 133.261407,226.884818 L133.261407,139.617429 C133.261407,135.781931 136.381496,132.661842 140.216304,132.661842 C144.051802,132.661842 147.171891,135.781931 147.171891,139.617429 L147.171891,230.198577 Z M68.3115816,220.563312 C69.5073746,220.752157 72.4468889,221.271138 76.3182257,222.313236 C76.6573209,222.404902 76.9991729,222.497946 77.3520525,222.597883 C79.8442643,223.300196 82.6693684,224.213409 85.6364514,225.380255 C85.9789926,225.514653 86.3242908,225.654564 86.6702782,225.796543 C89.3802829,226.905494 92.1860888,228.227414 94.954677,229.796763 C95.2999752,229.992501 95.6445841,230.191685 95.9885038,230.395694 C96.2145673,230.529402 96.4399416,230.665867 96.6653158,230.803022 C96.4371847,230.896755 96.2152565,230.999449 95.9885038,231.095939 C95.6425165,231.242743 95.2972183,231.390235 94.954677,231.542552 C92.0523806,232.836214 89.2810355,234.349048 86.6702782,236.067268 C86.3236016,236.296088 85.9776142,236.524908 85.6364514,236.759932 C85.0933477,237.134866 84.5536901,237.513247 84.0257492,237.906101 C81.5562815,239.747002 79.3245941,241.751937 77.3520525,243.878174 C76.9957268,244.262757 76.6573209,244.654922 76.3182257,245.047777 C72.6322885,249.307832 69.9719075,254.013812 68.5114548,258.868663 L68.3115816,220.563312 Z M212.539382,256.283406 L212.539382,264.966173 L204.234996,264.966173 L203.201169,264.966173 L194.896783,264.966173 L193.862956,264.966173 L185.559259,264.966173 L184.525432,264.966173 L176.220357,264.966173 L175.18653,264.966173 L166.882144,264.966173 L165.848317,264.966173 L114.624955,264.966173 L113.591128,264.966173 L105.30673,264.966173 L104.272903,264.966173 L95.9885038,264.966173 L94.954677,264.966173 L86.6702782,264.966173 L85.6364514,264.966173 L77.3520525,264.966173 L76.3182257,264.966173 L68.3515563,264.966173 C68.464588,263.71731 68.667218,262.469826 68.9470405,261.228545 C68.9952857,261.018333 69.0545585,260.808122 69.106939,260.597221 C69.1593196,260.387699 69.2096325,260.176798 69.2661484,259.967276 C70.5281063,255.319191 72.9362336,250.791718 76.3182257,246.652965 C76.6531856,246.24288 76.9977945,245.836931 77.3520525,245.434428 C79.4631268,243.038017 81.8981336,240.781518 84.6439776,238.73523 C84.9685992,238.492625 85.3056268,238.263805 85.6364514,238.028093 C85.9803711,237.784109 86.3201555,237.535302 86.6702782,237.299589 C89.2727649,235.540016 92.0461776,233.992033 94.954677,232.668734 C95.2951507,232.512971 95.6438949,232.370303 95.9885038,232.221432 C96.5736498,231.968489 97.1629311,231.722438 97.7584154,231.487415 C97.9672484,231.405398 98.1767706,231.325449 98.3862928,231.245499 C98.5744493,231.173821 98.7612274,231.098696 98.9500731,231.028396 C100.688281,230.383977 102.463706,229.813305 104.272903,229.323271 C104.615444,229.230916 104.961431,229.146831 105.30673,229.05999 C108.009153,228.375596 110.776363,227.856615 113.591128,227.52648 C113.934359,227.485816 114.280346,227.45618 114.624955,227.421719 C116.822871,227.198412 119.04422,227.075042 121.282111,227.075042 C131.576958,227.075042 136.950101,228.547211 142.146803,229.972514 C143.958757,230.468751 145.732804,230.955339 147.666749,231.36818 C147.838365,231.405398 148.015494,231.440548 148.189866,231.475698 C148.370441,231.512227 148.550327,231.549444 148.734348,231.585284 C151.683511,232.153199 155.058611,232.538472 159.495107,232.538472 C161.645466,232.538472 163.762744,232.437846 165.848317,232.259339 C166.192926,232.229703 166.539602,232.204891 166.882144,232.17043 C169.727235,231.885783 172.49858,231.434345 175.18653,230.83955 C175.531828,230.763047 175.877815,230.688611 176.220357,230.607284 C179.100598,229.922201 181.878146,229.069639 184.525432,228.058556 C184.873487,227.925537 185.21465,227.782869 185.559259,227.644336 C188.503598,226.458881 191.285281,225.08527 193.862956,223.535908 C194.213079,223.325008 194.554241,223.107215 194.896783,222.890111 C197.990682,220.933422 200.782014,218.730681 203.201169,216.315662 C203.555427,215.962782 203.89659,215.601632 204.234996,215.239793 C208.229703,210.961128 211.107876,206.086979 212.539382,200.835828 L212.539382,255.097262 L212.539382,255.690679 L212.539382,256.283406 Z M140.286604,66 C99.8763819,66 67,98.8763819 67,139.286604 L67,266 L67.2370909,266 L213.573209,266 L213.573209,255.39914 L213.573209,193.148981 L213.573209,178.666446 L213.573209,139.286604 C213.573209,98.8763819 180.696827,66 140.286604,66 L140.286604,66 Z" id="Fill-1"></path>
                    <path d="M16.6326837,155.349666 L39.131934,138.750557 C41.4527736,137.006682 42.3553223,137.394209 43,138.298441 L43,131 C41.5817091,133.260579 39.5187406,134.616927 37.7136432,135.973274 L16.826087,151.474388 C17.3418291,141.979955 13.6026987,137.458797 8.76761619,137.458797 C2.44977511,137.458797 0,142.884187 0,149.601336 L0,160 C1.22488756,158.579065 2.25637181,158.449889 3.8035982,158.449889 L39.1964018,158.449889 C40.808096,158.449889 41.7751124,158.579065 43,160 L43,153.799555 C41.7751124,155.285078 40.808096,155.349666 39.1964018,155.349666 L16.6326837,155.349666 Z M15.7594196,156 L1,156 L1,151.733333 C1,142.533333 5.69617897,141 8.91641597,141 C13.880948,141 16.8999202,146.133333 15.7594196,156 L15.7594196,156 Z M18.8597048,114.551571 L21.1619018,106.042625 C21.4982327,104.800532 22.7938802,100.751717 24.9739231,98.6088019 L20.8125412,97.4823664 C21.4281977,100.38194 20.3182243,104.481253 19.9827078,105.723346 L17.6796964,114.232292 L4.39014797,110.634703 C6.03271303,104.813564 7.21272135,99.4672712 11.5239457,96.8348492 L11.1501542,96 L6.09867623,98.165721 C6.0498146,99.0852768 5.52943826,101.744577 4.99196036,103.731925 L2,114.787772 C3.54972797,113.740342 4.57745088,113.88532 6.06773053,114.288491 L40.1609315,123.517444 C41.7131025,123.937719 42.6113421,124.314012 43.4216308,126 L46.3459992,115.192572 C47.0178466,112.708387 48.1172333,109.139304 49,107.845085 C47.5756835,106.459642 46.0943619,104.792387 45.0356932,103.039611 L44.1504834,103.599978 C46.8712617,109.802297 44.9184253,115.539543 43.4517621,121.208373 L18.8597048,114.551571 Z M29.1639673,61.9855579 L28.9342429,61 C28.0103697,61.11774 24.7469574,61.3943878 23.6149224,61.2297165 C23.6779515,63.3391562 21.7132695,63.8850416 19.94348,66.6992746 C16.230571,72.6027416 18.1438346,78.7729761 23.0899568,81.8383328 C30.647638,86.523232 36.1941949,81.7568205 40.1376575,79.2933375 C44.5256408,76.4914549 48.629164,73.8970582 54.130937,77.3074013 C57.9657574,79.6844319 59.8433598,85.2964306 56.8245998,90.0965998 C53.8406716,94.841604 47.862034,96.1194535 46.3203102,96.2380168 L46.3344088,97.3199074 C48.0635611,97.3948329 50.8351809,97.6558369 52.626533,98 C52.9101637,95.338088 56.0558112,94.1442209 58.1722605,90.778339 C61.3643504,85.7023455 60.5341914,78.0566558 54.4212024,74.2667453 C48.5304737,70.615982 42.9681596,73.0728782 38.1223864,76.3572478 C33.7559657,79.2480529 29.1258181,83.0494904 23.5120856,79.5699853 C18.8993539,76.7104678 18.8413009,71.1536339 21.0970776,67.5670924 C23.0741995,64.4226935 27.0043928,62.7175219 29.1639673,61.9855579 L29.1639673,61.9855579 Z M54.1900731,51.8200756 L60.7675855,45.9364261 C61.7278894,45.0771823 65.02477,42.3880522 68.0153608,41.7892846 L65.1612598,38.5464378 C64.0872145,41.3232124 60.9186993,44.1581436 59.9583955,45.0165683 L53.3808831,50.9002178 L44.2653088,40.5417838 C48.8214711,36.55273 52.7317437,32.7086583 57.7688703,32.8749372 L57.9134846,31.967366 L52.5148223,31 C51.9704877,31.746207 50.0815652,33.6956829 48.5452416,35.0693263 L40,42.714057 C41.8653617,42.6886647 42.6428666,43.3775341 43.6649158,44.5390286 L67.0493699,71.1133347 C68.1144784,72.3231565 68.6571882,73.1357112 68.411019,75 L76.7645247,67.5272819 C78.6851324,65.8096133 81.5546696,63.4161811 83,62.8149562 C82.5702194,60.863842 82.2468683,58.6448796 82.3232377,56.5864624 L81.2784401,56.5692611 C80.153211,63.2851239 75.3841895,67.0317218 71.0579477,70.9880112 L54.1900731,51.8200756 Z M83.9798933,30.5600325 L108.31309,44.7606411 C110.852277,46.2127122 110.859664,47.2103373 110.288469,48.1781083 L117,45.21177 C114.350021,44.810398 112.271235,43.4404257 110.295856,42.3117742 L87.6220763,29.1651818 C96.5617563,25.7858616 99.2125564,20.466853 97.2642593,15.9646862 C94.7176857,10.0825958 88.7406648,10.0071312 82.5633976,12.7379537 L73,16.9647991 C74.8005745,17.5270517 75.3348379,18.4351144 75.9585556,19.8755756 L90.2219943,52.8278871 C90.8719737,54.3288858 91.1427985,55.2817297 90.3295035,57 L96.0324169,54.4789856 C94.1719327,53.9424408 93.7230201,53.0683786 93.0738613,51.5682092 L83.9798933,30.5600325 Z M83.7334353,30 L78,17.1260471 L81.8129608,15.4871912 C90.0348634,11.9547978 93.2296175,15.4629358 94.4808482,18.2717101 C96.4095544,22.6021058 92.9941886,27.2065875 83.7334353,30 L83.7334353,30 Z M146.228566,0.3639928 C148.14662,1.8650532 147.667107,4.55646843 146.413627,8.39970772 L136.157962,39.6120903 L120.922101,6.82978382 C120.012424,4.81060755 119.63819,3.01687726 120.678643,1.97736629 L114,2.39956515 C115.909829,3.77109658 117.086816,5.90340575 118.220212,8.36281656 L135.717106,46 L148.585009,6.70517367 C149.243826,4.78109462 150.448778,1.20101228 152,0 L146.228566,0.3639928 Z M163,32.202556 L176.878716,10 L177,36 L163,32.202556 Z M162.443264,33.7988653 L176.94825,37.7241379 L177.007586,45.1258948 C177.043351,48.928401 176.329685,49.6007706 174.747914,50.0373637 L182,52 C180.11992,49.361742 180.094722,48.2243235 180.011,42.8778876 L179.781782,10.2789374 C179.77853,8.81468389 179.556627,7.4236024 179.301398,6.88863359 L176.016744,6 C176.350005,6.48943954 176.656443,7.56994645 176.685705,8.44313261 L158.272624,37.6607222 C155.605722,41.8624225 154.261298,42.8965871 152,43.8811573 L158.197843,45.5584227 C155.975561,43.6925361 158.199469,40.6347585 159.984448,37.724951 L162.443264,33.7988653 Z M214.336527,23.177373 L217.597868,25.2227522 C220.251317,26.8869019 220.376689,28.0455081 220.736311,29.1974843 C222.531946,28.7797893 225.764419,28.6455302 226.958759,28.7010571 L227,27.6460459 C222.910539,26.9333125 218.253601,24.1669122 215.765941,22.6071863 L211.39934,19.8689639 C207.474018,17.4075472 207.2109,16.4710487 206.588985,15 C205.401244,15.1806696 201.919675,15.4674205 200.165281,15.4483591 L200.214771,16.4818225 C203.986676,17.4581016 205.499397,17.8666802 211.683078,21.5132233 L191.361969,54.2276879 C190.499207,55.6158606 189.926781,56.4139563 188,56.6725294 L193.306897,60 C192.746019,58.1825297 193.152655,57.2800103 194.015418,55.8910089 L214.336527,23.177373 Z M208.822687,68.0519046 C207.679113,69.2019674 206.899328,69.8018232 205,69.687875 L209.49723,74 C209.288403,72.0929957 209.927313,71.3580299 211.070887,70.2079671 L236.178142,44.9489094 C237.27531,43.8444258 238.054267,43.1534115 240,43.312125 L235.503599,39 C235.665191,40.862239 235.02711,41.6883633 233.929113,42.7928468 L208.822687,68.0519046 Z M266.122587,78.4750676 C259.317125,64.969152 244.297461,63.8383559 234.876358,68.4569972 C222.294484,74.6241602 220.537489,87.9367145 225.743953,98.2688949 C232.695004,112.062813 247.7734,113.165053 257.194502,108.546412 C269.776377,102.379249 271.503593,89.1523611 266.122587,78.4750676 L266.122587,78.4750676 Z M265.120101,79.1046425 C269.916076,88.7334771 265.298153,101.304343 253.973053,106.921095 C245.421647,111.162183 233.623647,109.319543 227.793662,97.615802 C223.141436,88.2762806 227.760175,75.7046003 239.085275,70.087848 C247.636681,65.8475749 259.433865,67.6894002 265.120101,79.1046425 L265.120101,79.1046425 Z M273.833577,126.890971 L240.945985,126.890971 C239.340146,126.890971 238.183942,126.761499 237.156204,125.337308 L237.156204,129.998296 C238.376642,128.50937 239.340146,128.444634 240.945985,128.444634 L272.09927,128.444634 L236,157.381601 L276.210219,157.381601 C277.751825,157.381601 278.779562,157.511073 280,159 L280,154.339012 C278.779562,155.763203 277.751825,155.827939 276.210219,155.827939 L242.744526,155.827939 L280,125.984668 L280,121 C278.972263,122.553663 277.109489,124.366269 273.833577,126.890971 L273.833577,126.890971 Z" id="Fill-1"></path>
                </g>
            </g>
        </g>
    </g>
</svg>